<?xml version="1.0" encoding="UTF-8"?>
<svg xmlns="http://www.w3.org/2000/svg" width="1440" height="1180" viewBox="0 0 1440 1180">
  <rect width="1440" height="1180" fill="#EEF5F1"/>
  
    <rect x="48" y="34" width="1344" height="112" rx="24" fill="#FFFDF6" stroke="#C9D8D1" stroke-width="2"/>
    <rect x="78" y="64" width="132" height="42" rx="21" fill="#277564" stroke="#277564" stroke-width="0"/><text x="144" y="93" text-anchor="middle" font-family="Yu Gothic, Meiryo, Noto Sans CJK JP, sans-serif" font-size="21" font-weight="900" fill="#fff">民法総則</text>
    <text x="232" y="82" text-anchor="start" font-family="Yu Gothic, Meiryo, Noto Sans CJK JP, sans-serif" font-size="38" font-weight="900" fill="#1F2A24">代理権の消滅原因</text>
    <text x="234" y="120" text-anchor="start" font-family="Yu Gothic, Meiryo, Noto Sans CJK JP, sans-serif" font-size="21" font-weight="700" fill="#5F6F68">任意代理と法定代理を並べて見る</text>
  
  
      
    <rect x="95" y="180" width="390" height="190" rx="18" fill="#E5EFFB" stroke="#3F6EA8" stroke-width="2"/>
    <rect x="113" y="198" width="190" height="42" rx="21" fill="#3F6EA8" stroke="#3F6EA8" stroke-width="0"/><text x="208" y="227" text-anchor="middle" font-family="Yu Gothic, Meiryo, Noto Sans CJK JP, sans-serif" font-size="21" font-weight="900" fill="#fff">任意代理</text>
    
    
    <path d="M230 246 l6 12 l12 3 l-11 5 l-3 12 l-5 -12 l-12 -3 l11 -5 z" fill="#FFD95A" opacity="0.95"/>
    <circle cx="205" cy="276" r="28" fill="#fff" stroke="#277564" stroke-width="5"/>
    <path d="M181 271 Q193 243 217 249 Q233 255 229 277 Q209 261 181 271" fill="#277564"/>
    <circle cx="205" cy="274" r="18" fill="#FFF0D8"/>
    <circle cx="199" cy="268" r="2.8" fill="#1F2A24"/>
    <circle cx="212" cy="268" r="2.8" fill="#1F2A24"/>
    <path d="M198 281 Q205 288 212 281" stroke="#1F2A24" stroke-width="2.4" fill="none" stroke-linecap="round"/>
    <path d="M187 302 Q205 286 223 302" fill="#277564"/>
    <text x="205" y="331" text-anchor="middle" font-family="Yu Gothic, Meiryo, Noto Sans CJK JP, sans-serif" font-size="17" font-weight="900" fill="#1F2A24">本人</text>
  
  
    <line x1="252" y1="274" x2="326" y2="274" stroke="#3F6EA8" stroke-width="8" stroke-linecap="round"/>
    <polygon points="326,274 302,260 302,288" fill="#3F6EA8"/>
  
    
    <path d="M397 246 l6 12 l12 3 l-11 5 l-3 12 l-5 -12 l-12 -3 l11 -5 z" fill="#FFD95A" opacity="0.95"/>
    <circle cx="372" cy="276" r="28" fill="#fff" stroke="#3F6EA8" stroke-width="5"/>
    <path d="M348 271 Q360 243 384 249 Q400 255 396 277 Q376 261 348 271" fill="#3F6EA8"/>
    <circle cx="372" cy="274" r="18" fill="#FFF0D8"/>
    <circle cx="366" cy="268" r="2.8" fill="#1F2A24"/>
    <circle cx="379" cy="268" r="2.8" fill="#1F2A24"/>
    <path d="M365 281 Q372 288 379 281" stroke="#1F2A24" stroke-width="2.4" fill="none" stroke-linecap="round"/>
    <path d="M354 302 Q372 286 390 302" fill="#3F6EA8"/>
    <text x="372" y="331" text-anchor="middle" font-family="Yu Gothic, Meiryo, Noto Sans CJK JP, sans-serif" font-size="17" font-weight="900" fill="#1F2A24">代理人</text>
  
  <text x="120" y="350" text-anchor="start" font-family="Yu Gothic, Meiryo, Noto Sans CJK JP, sans-serif" font-size="18" font-weight="900" fill="#1F2A24">基礎関係も見る</text>
    
  
      
    <rect x="525" y="180" width="390" height="190" rx="18" fill="#DDF1EA" stroke="#277564" stroke-width="2"/>
    <rect x="543" y="198" width="190" height="42" rx="21" fill="#277564" stroke="#277564" stroke-width="0"/><text x="638" y="227" text-anchor="middle" font-family="Yu Gothic, Meiryo, Noto Sans CJK JP, sans-serif" font-size="21" font-weight="900" fill="#fff">法定代理</text>
    
    <line x1="720" y1="228" x2="720" y2="314" stroke="#277564" stroke-width="7" stroke-linecap="round"/>
    <line x1="658" y1="250" x2="782" y2="250" stroke="#277564" stroke-width="7" stroke-linecap="round"/>
    <path d="M672 250 l-24 48 h48 z" fill="#fff" stroke="#277564" stroke-width="5"/>
    <path d="M768 250 l-24 48 h48 z" fill="#fff" stroke="#277564" stroke-width="5"/>
    <rect x="682" y="317" width="76" height="14" rx="7" fill="#277564"/>
  
    <text x="549" y="316" text-anchor="start" font-family="Yu Gothic, Meiryo, Noto Sans CJK JP, sans-serif" font-size="19" font-weight="800" fill="#1F2A24">法律上の代理関係</text>
  
      
    <rect x="955" y="180" width="390" height="190" rx="18" fill="#FBE3E3" stroke="#B94646" stroke-width="2"/>
    <rect x="973" y="198" width="190" height="42" rx="21" fill="#B94646" stroke="#B94646" stroke-width="0"/><text x="1068" y="227" text-anchor="middle" font-family="Yu Gothic, Meiryo, Noto Sans CJK JP, sans-serif" font-size="21" font-weight="900" fill="#fff">注意</text>
    <text x="1150" y="285" text-anchor="middle" font-family="Yu Gothic, Meiryo, Noto Sans CJK JP, sans-serif" font-size="40" font-weight="900" fill="#B94646">別問題</text>
    <text x="979" y="316" text-anchor="start" font-family="Yu Gothic, Meiryo, Noto Sans CJK JP, sans-serif" font-size="19" font-weight="800" fill="#1F2A24">本人死亡だけで効力否定ではない</text>
  
      <rect x="84" y="420" width="1290" height="588" rx="16" fill="#FFFDF6" stroke="#C9D8D1" stroke-width="2"/><rect x="84" y="588" width="1290" height="84" fill="#F1F4F2"/><rect x="84" y="756" width="1290" height="84" fill="#F1F4F2"/><rect x="84" y="924" width="1290" height="84" fill="#F1F4F2"/><rect x="84" y="420" width="1290" height="84" rx="16" fill="#277564"/><text x="102" y="458" text-anchor="start" font-family="Yu Gothic, Meiryo, Noto Sans CJK JP, sans-serif" font-size="22" font-weight="900" fill="#fff">消滅原因</text><line x1="414" y1="420" x2="414" y2="504" stroke="#C9D8D1" stroke-width="2"/><text x="432" y="458" text-anchor="start" font-family="Yu Gothic, Meiryo, Noto Sans CJK JP, sans-serif" font-size="22" font-weight="900" fill="#fff">任意代理</text><line x1="674" y1="420" x2="674" y2="504" stroke="#C9D8D1" stroke-width="2"/><text x="692" y="458" text-anchor="start" font-family="Yu Gothic, Meiryo, Noto Sans CJK JP, sans-serif" font-size="22" font-weight="900" fill="#fff">法定代理</text><line x1="934" y1="420" x2="934" y2="504" stroke="#C9D8D1" stroke-width="2"/><text x="952" y="458" text-anchor="start" font-family="Yu Gothic, Meiryo, Noto Sans CJK JP, sans-serif" font-size="22" font-weight="900" fill="#fff">整理</text><line x1="84" y1="504" x2="414" y2="504" stroke="#C9D8D1" stroke-width="2"/><text x="102" y="538" text-anchor="start" font-family="Yu Gothic, Meiryo, Noto Sans CJK JP, sans-serif" font-size="22" font-weight="700" fill="#1F2A24">本人の死亡</text><line x1="414" y1="504" x2="414" y2="588" stroke="#C9D8D1" stroke-width="2"/><line x1="414" y1="504" x2="674" y2="504" stroke="#C9D8D1" stroke-width="2"/><text x="432" y="538" text-anchor="start" font-family="Yu Gothic, Meiryo, Noto Sans CJK JP, sans-serif" font-size="22" font-weight="700" fill="#1F2A24">○</text><line x1="674" y1="504" x2="674" y2="588" stroke="#C9D8D1" stroke-width="2"/><line x1="674" y1="504" x2="934" y2="504" stroke="#C9D8D1" stroke-width="2"/><text x="692" y="538" text-anchor="start" font-family="Yu Gothic, Meiryo, Noto Sans CJK JP, sans-serif" font-size="22" font-weight="700" fill="#1F2A24">○</text><line x1="934" y1="504" x2="934" y2="588" stroke="#C9D8D1" stroke-width="2"/><line x1="934" y1="504" x2="1374" y2="504" stroke="#C9D8D1" stroke-width="2"/><text x="952" y="538" text-anchor="start" font-family="Yu Gothic, Meiryo, Noto Sans CJK JP, sans-serif" font-size="22" font-weight="700" fill="#1F2A24">111条。本人死亡で代理権は消滅</text><line x1="84" y1="588" x2="414" y2="588" stroke="#C9D8D1" stroke-width="2"/><text x="102" y="622" text-anchor="start" font-family="Yu Gothic, Meiryo, Noto Sans CJK JP, sans-serif" font-size="22" font-weight="700" fill="#1F2A24">代理人の死亡</text><line x1="414" y1="588" x2="414" y2="672" stroke="#C9D8D1" stroke-width="2"/><line x1="414" y1="588" x2="674" y2="588" stroke="#C9D8D1" stroke-width="2"/><text x="432" y="622" text-anchor="start" font-family="Yu Gothic, Meiryo, Noto Sans CJK JP, sans-serif" font-size="22" font-weight="700" fill="#1F2A24">○</text><line x1="674" y1="588" x2="674" y2="672" stroke="#C9D8D1" stroke-width="2"/><line x1="674" y1="588" x2="934" y2="588" stroke="#C9D8D1" stroke-width="2"/><text x="692" y="622" text-anchor="start" font-family="Yu Gothic, Meiryo, Noto Sans CJK JP, sans-serif" font-size="22" font-weight="700" fill="#1F2A24">○</text><line x1="934" y1="588" x2="934" y2="672" stroke="#C9D8D1" stroke-width="2"/><line x1="934" y1="588" x2="1374" y2="588" stroke="#C9D8D1" stroke-width="2"/><text x="952" y="622" text-anchor="start" font-family="Yu Gothic, Meiryo, Noto Sans CJK JP, sans-serif" font-size="22" font-weight="700" fill="#1F2A24">代理人の人格に結びつくため消滅</text><line x1="84" y1="672" x2="414" y2="672" stroke="#C9D8D1" stroke-width="2"/><text x="102" y="706" text-anchor="start" font-family="Yu Gothic, Meiryo, Noto Sans CJK JP, sans-serif" font-size="22" font-weight="700" fill="#1F2A24">代理人の破産手続開始</text><line x1="414" y1="672" x2="414" y2="756" stroke="#C9D8D1" stroke-width="2"/><line x1="414" y1="672" x2="674" y2="672" stroke="#C9D8D1" stroke-width="2"/><text x="432" y="706" text-anchor="start" font-family="Yu Gothic, Meiryo, Noto Sans CJK JP, sans-serif" font-size="22" font-weight="700" fill="#1F2A24">○</text><line x1="674" y1="672" x2="674" y2="756" stroke="#C9D8D1" stroke-width="2"/><line x1="674" y1="672" x2="934" y2="672" stroke="#C9D8D1" stroke-width="2"/><text x="692" y="706" text-anchor="start" font-family="Yu Gothic, Meiryo, Noto Sans CJK JP, sans-serif" font-size="22" font-weight="700" fill="#1F2A24">○</text><line x1="934" y1="672" x2="934" y2="756" stroke="#C9D8D1" stroke-width="2"/><line x1="934" y1="672" x2="1374" y2="672" stroke="#C9D8D1" stroke-width="2"/><text x="952" y="706" text-anchor="start" font-family="Yu Gothic, Meiryo, Noto Sans CJK JP, sans-serif" font-size="22" font-weight="700" fill="#1F2A24">代理人側の信用・管理能力の問題</text><line x1="84" y1="756" x2="414" y2="756" stroke="#C9D8D1" stroke-width="2"/><text x="102" y="790" text-anchor="start" font-family="Yu Gothic, Meiryo, Noto Sans CJK JP, sans-serif" font-size="22" font-weight="700" fill="#1F2A24">代理人の後見開始</text><line x1="414" y1="756" x2="414" y2="840" stroke="#C9D8D1" stroke-width="2"/><line x1="414" y1="756" x2="674" y2="756" stroke="#C9D8D1" stroke-width="2"/><text x="432" y="790" text-anchor="start" font-family="Yu Gothic, Meiryo, Noto Sans CJK JP, sans-serif" font-size="22" font-weight="700" fill="#1F2A24">○</text><line x1="674" y1="756" x2="674" y2="840" stroke="#C9D8D1" stroke-width="2"/><line x1="674" y1="756" x2="934" y2="756" stroke="#C9D8D1" stroke-width="2"/><text x="692" y="790" text-anchor="start" font-family="Yu Gothic, Meiryo, Noto Sans CJK JP, sans-serif" font-size="22" font-weight="700" fill="#1F2A24">○</text><line x1="934" y1="756" x2="934" y2="840" stroke="#C9D8D1" stroke-width="2"/><line x1="934" y1="756" x2="1374" y2="756" stroke="#C9D8D1" stroke-width="2"/><text x="952" y="790" text-anchor="start" font-family="Yu Gothic, Meiryo, Noto Sans CJK JP, sans-serif" font-size="22" font-weight="700" fill="#1F2A24">代理人が行為能力を失う場面</text><line x1="84" y1="840" x2="414" y2="840" stroke="#C9D8D1" stroke-width="2"/><text x="102" y="874" text-anchor="start" font-family="Yu Gothic, Meiryo, Noto Sans CJK JP, sans-serif" font-size="22" font-weight="700" fill="#1F2A24">本人の破産手続開始</text><line x1="414" y1="840" x2="414" y2="924" stroke="#C9D8D1" stroke-width="2"/><line x1="414" y1="840" x2="674" y2="840" stroke="#C9D8D1" stroke-width="2"/><text x="432" y="874" text-anchor="start" font-family="Yu Gothic, Meiryo, Noto Sans CJK JP, sans-serif" font-size="22" font-weight="700" fill="#1F2A24">○</text><line x1="674" y1="840" x2="674" y2="924" stroke="#C9D8D1" stroke-width="2"/><line x1="674" y1="840" x2="934" y2="840" stroke="#C9D8D1" stroke-width="2"/><text x="692" y="874" text-anchor="start" font-family="Yu Gothic, Meiryo, Noto Sans CJK JP, sans-serif" font-size="22" font-weight="700" fill="#1F2A24">原則×</text><line x1="934" y1="840" x2="934" y2="924" stroke="#C9D8D1" stroke-width="2"/><line x1="934" y1="840" x2="1374" y2="840" stroke="#C9D8D1" stroke-width="2"/><text x="952" y="874" text-anchor="start" font-family="Yu Gothic, Meiryo, Noto Sans CJK JP, sans-serif" font-size="22" font-weight="700" fill="#1F2A24">任意代理は委任等の基礎関係で消えるこ</text><text x="952" y="906" text-anchor="start" font-family="Yu Gothic, Meiryo, Noto Sans CJK JP, sans-serif" font-size="22" font-weight="700" fill="#1F2A24">とがある</text><line x1="84" y1="924" x2="414" y2="924" stroke="#C9D8D1" stroke-width="2"/><text x="102" y="958" text-anchor="start" font-family="Yu Gothic, Meiryo, Noto Sans CJK JP, sans-serif" font-size="22" font-weight="700" fill="#1F2A24">解除・解約告知</text><line x1="414" y1="924" x2="414" y2="1008" stroke="#C9D8D1" stroke-width="2"/><line x1="414" y1="924" x2="674" y2="924" stroke="#C9D8D1" stroke-width="2"/><text x="432" y="958" text-anchor="start" font-family="Yu Gothic, Meiryo, Noto Sans CJK JP, sans-serif" font-size="22" font-weight="700" fill="#1F2A24">○</text><line x1="674" y1="924" x2="674" y2="1008" stroke="#C9D8D1" stroke-width="2"/><line x1="674" y1="924" x2="934" y2="924" stroke="#C9D8D1" stroke-width="2"/><text x="692" y="958" text-anchor="start" font-family="Yu Gothic, Meiryo, Noto Sans CJK JP, sans-serif" font-size="22" font-weight="700" fill="#1F2A24">×</text><line x1="934" y1="924" x2="934" y2="1008" stroke="#C9D8D1" stroke-width="2"/><line x1="934" y1="924" x2="1374" y2="924" stroke="#C9D8D1" stroke-width="2"/><text x="952" y="958" text-anchor="start" font-family="Yu Gothic, Meiryo, Noto Sans CJK JP, sans-serif" font-size="22" font-weight="700" fill="#1F2A24">任意代理は基礎契約を終了させられる</text><rect x="84" y="420" width="1290" height="588" rx="16" fill="none" stroke="#C9D8D1" stroke-width="2"/>
    
</svg>